<mxfile host="app.diagrams.net" agent="Mozilla/5.0 (Windows NT 10.0; Win64; x64) AppleWebKit/537.36 (KHTML, like Gecko) Chrome/130.0.0.0 Safari/537.36" version="24.8.3">
  <diagram name="Page-1" id="C6AKSRgKRCRcznkF4qrz">
    <mxGraphModel dx="1221" dy="759" grid="1" gridSize="10" guides="1" tooltips="1" connect="1" arrows="1" fold="1" page="1" pageScale="1" pageWidth="850" pageHeight="1100" math="0" shadow="0">
      <root>
        <mxCell id="0" />
        <mxCell id="1" parent="0" />
        <mxCell id="CiZHQfEEmnzqguUusSTf-1" value="" style="shape=image;verticalLabelPosition=bottom;labelBackgroundColor=default;verticalAlign=top;aspect=fixed;imageAspect=0;image=data:image/png,iVBORw0KGgoAAAANSUhEUgAAAToAAACgCAMAAACrFlD/AAAAsVBMVEX///8eiP8Agf95uP8AgP8Ag/+qzv8Xhv9ETlmXwv91tv9IUVz6/f/o6eqUmZ5JUlxwtP9OV2G7v8Itj//09PW00//g7v/t9f+ytbl6gIdjanPZ291aYmvm8f9urP/FyMrB2//X6P89SFOrr7Nipv/0+f9udHxUn//L4f/DxciYnaKFipA4lP+92f+hzP/f4OKLvP9Fmf9Xof92sP+TwP+Xx//t7e4zP0zQ0tR+hIuLkJbbUj2+AAANH0lEQVR4nO1dCXeiyhIGBEFBEcEtYiLua1yijuP//2GvqrpRNpOZe899mtDfORMEGmg/q2vrakaSBAQEBAQEBAQEBAQEBH42rEd34DvCCo6j3cpd7UalmSDwL9A7uIqm67oM/zRF3vYe3aHvAmurajJBZ381dSsk708QrDTiS9E0XYO/yJ/mBo/u1jdAQwGudGV3DMawNw6OU3ag8eiOPT2KQJSujqJCFryqwJ36/rA+fQ+sVbQNSQnruyB46vohPfouCNCqZui1HnCna0LffQJkyG1lnBjjmdX/vT/fByUNRmuTPjYbjRiFPfBUtNJDevUd0AJ6lCJ93CqKoh+j3lxDBVqzBFIAcAShm7JPKrl2btQy7IXY3QfoM5WZgh3aWWBP3TevZwNFlt1Hde3JAdxwS2C5YC1GCkleYRyeBz6V2cN699R418IRCdSBgK1dDMI0OfTyYDxrx8d175nxCsqMSRWjTrIOGoazyo6N4hlI5eiRHXxewIDUmAnl1IFLMqIAlgUSY1CAuwf274kBCk5m7siVOhA1zKPoLh2H88IrzoIFzHC+ItSBCkRLS4bWDTkUiOMedQ1B3ZdYZQ5YVxED9ktkmIlm1Ey0hJm4hw/w2/r0KXROtpRdV6YspEDn5PWB/XtiFIG6A31i1DVcjaYlQpe4BOdFqjgTsUBMdqcsELtNhmEgJrKd2VhB+M/CiZ3OZhKVkQj//wgwYrkdKKo6JZ36kbNTXYSwdzHGVCfTZiVdUeRYdq6owlmR6ryHo3KdvOmt1zGecMJHEUJ3HytUcFkVJph7F07dZwjAkdPltBkNcEJMb2ZcIRCij1PYWjFxtIiMKv1HdOgboYE5JmUfTaTP9lhMIYpOvsRMp+qcVWnWGlvj1qy0ojBW7z+6Y98AzR1xReVh4KKwIrGdCCP+CCXG1600UTk8ukvfBq3jirGnY3HiqiQ84b9Bs7HH0p3RR0O4JH8NjGg/sk7MDqPdavp6/Ez9zUrQBsvf/6POPTduyYD4YVfF4nYYyuruXrFicXVts8qjT1NEDy+p5YKdcjMgujrK0oLMRF/bTPO3dACpS8YVfY38Fk2TWWm7Jqc1ITmGMm9DDObOsUHqErnNGYUVq2PQslqzLebf9VSyADOisuaWsE1Qoja5C36JulhFXY/E6SqI1hYDXnccuwqrP/VbStQ6KPdqbH8wimzlSWS0TXG0Rm1mAwatVo5dtQfjwufVGNbYJmcTaURddERiSawW9zYaMDpjUz19VZYTbfrQRs2Xk0IWFmf+Q001TVTEIqevYAyizt8I2myjbSxJKmh5Ky5Dv26v31agNJVrYQVivFdXY6mJZvh2sAfXyDflZ41Ut0cZZi1X2g5ntI9rWvc07VuUyYsImLXTZKVExdmRKtm1EmsDig8zB1jzmKulPkWqj2WenOJ+FGEsUqK4iboNmaOlT1gScOg1GXofvE2P2Nxjm0a0rCAnYNRhbCCTiwsUKk00FuqHZE2BFQWV2hpHrBICl5IFuNJMBeU2wjYFiYpVEnb4h6MYVmW/y4rOMnfamC2f+CB5QlakGV91fIXaY8bj9RWZo9HbVOO25MfjSh1I2ohLXQ/X8ci0poKxAgMad0PwKkZcsYI7nLAgt1KHGAfrKa/WGZGcceZYfuU1xEpmRuOV2mjcJUHjsU0/4OciRp0UWVaBo/UaH7zGLOz1GuQ3ZE4qw9Fc5Z6S1AUqryGz9mQFCFimot58tua1zmykqnt+EEvOlFxlAJLUWSsQMOae9a9e2gH95kgjLKotJtrcyZn+YCSpQxdOTuRAArS0/ehFGHLEJawJBkPN1XhNU2dh4ckuWv3fwiP72FW0Wjuahxqv8lfok6JOmmFaZHWTqRnl5uIyNkPfZXVLpszy+NaANHXSFv017YOvtkMrqqeG4jHW5hXdwZwN10zqJMwLy5rqTvc7WY3njK8oKdc2LmuTu7L3LOooL8zDBxQuOSuF2aCloGF0oeWw0CeTOqm3h5AsrKl4HWdcB9ZjFGmTOd/4w5FNHTgbh6muqIq8P96fYA3bTEu5coVD3KMOYI1b46+WKFrj3pdtfio+oU7gcwjq/jEEdf8Yn1L3J1osr5qOZh0yJ2NaxdeVrLm7j8Z9bqzg/VAoFw7FIJf8zbSstPi4oPN3x2qJRWQ3WOtyrVwuFArlcq3Q/297+ZTAtOU+ebAvh+EEFaSssuL6ZqFWQJTpby2Hr+Yd48xMIlzgbxjT3JWrsVK79NT0rAacgdgVDvQX/uQsbyJRjUlicVMRmVNHayS01dhhjVjqBVkBilyNv192dqS93HFXvL7OjoMqEyNv8lzTEvf4eGyhnBVubQJUeuW8xbEtLSF2mO91o0xh7asWL2I6lIG5KFM92C/nbiEtVndFijbflVT9K879x2rncLiW422acKiWtyxAC4XqNmRvs103bBO1c8dyoZa0HI08il0DJyNG3KsN1Iw3TtCbUW+COUaHJOkFW+ioZGf2fjA+cBJ/xwYgBmbp8odRbPZ/ViuU0yn393IOjSwVQOgyvSYGaGQkzYgGa0b6q8jfQmm1EI1MkpDQXJUmMtCr6zX5Y93E+k2Uv2Ot1sBRWKshkX0mi71yDQHjtZYOHsBQlPM2KYY4qnxhMa+vk0DpH4ArPjRnrEz2nUVd6P+mfThsm7tZMUTAl3zxskPpvVbrw+ZQo6HJpW4N8T5CSF0c/RFfx850XUBKzgqIo3f+erH1O+IgdF0SrcbHfiV/bWEDYWGz0FQzXtXZwtLYL/y6Mfp1uUx5XoHRRFLbl7X4mxQhmkiNzVxGE3EUlVTN0jq5/oti2HjAGuQxhk0CMydyKnMSX3VYwsxJtE0Ph2vOhS58WdZtPL6T1xL341o0JRELzYDL3EWwKRQpLzyl/zqmV6T/qi21XJNliQ8zliU+0F7ehyuiyCYkFN1la//1jCoxlhfGoIz+gAzm2jG5YubyGTGKLpRdljz1trXCDbVt3rLr92BtZXpPFsqem/Z+GfoFjMtA3sq1Qr7WX3+OcaM8deXVdLv+xM1tNo7bwvYo3mqURr6DAwEBAQEBAQEBAQEBAQEBAQEBAQEBAQEBAYFnRmXerm+ue+2Xc7qJt6nQ9sS3EUxePrv1ZvPJ2RuGL3/W7rngXUwD0PH4/vDXPDy1qYYf64MLbdt8G8GL/cnNfdvxMk90q7EfqPqr+xddfhZMzM7b5rwYhD/7eXH9FufBgn+qm5w6u5q8/sW5f++u7dsZMgyYD9qx3UVKmp8fC3tJ225G37vGv6RuYWZcQJgb7czj3wgnxzlFditdABtilXO37Vy65zOKTZy6LpOkzRlbAnWb4fAt8+4vvuX7t5vXoZ3Hbj20F3DrbvKhePP2sM1HAJw/tYd173ZmOI/29rGY253o7uLXwDSYghvCR98ZADykjglPnah7MejbTAyU1Be/PgBd+ZKh0yog0VUjHP9Vc2AbA/yl8Cm+DXc26cQSdgdhq4th2AZ7muX4Z7iz7XvhGdMcDJ7GnizsRXQXLOjCZBLkVSpzs3qqVJCfur0EY7mpDIm6CdP9HYdR59S90yL+EzC0jbr0Fg76pdnpet55UsFbn9r2kN8azXDlEhK8MDsbbzMxhrjj+/6bV+mwLtaN3xXP61afhrqLndQ5Q+M6+CK6znHQDBuOk6bOoUYTI20jO2YFNAJzXs7GhB1kZT0JXbfgV3sm3RrUCG58BwdAxaErLxkPeCh+23UJrepiEX6VCHXnCHWTIWKZQZ1NctA2h8l7n+g7d9j5iz2PnrtD3ZvNdOpvE9Wpz57j+0h3lXr6RFiS1A0HthMOuGzqYrouIXW0czZTHl/dxMuHJpE0sWMm/A514Q+wMJEnnwnsC1F3Np1l/WlGq4S6Dvvqnc72b37kDnVRC5ugjs50uZMTwdIZgn1usx/lJWbJ71HHeebbGHXS2wR8d/95fJo6/8abf0HdHanzQD+CFTUc26Nr/kTqbtSlpA5wOlcd42mG7cZh/fo76mzmnER1XT2l685m54xYkpZbxsOKO9TNuQe9ZLouQZ2EyvC39Cz4TSMWqMvQdRszHIRx6pYmftGKw6WObtAxkhFX1WQCwr7tmxHzXm6/CiGk7mSQB+0xSc2grmJkOEEPQsWxh57kDRl1ngdjZW55zAmFITc/0ec4dW2740mViR/6dWfU75PknX1uGDyHfNqJfQFtd7rwFIzpnz32GHxa1Tyzh17MC/RmyYQvRl0VowrvYqQM+ePQ9Q3bMQ0fheZtYJq2Y5sGd+7rtmEMMHSIZ04837b9wbBD0YTvDAe+b/jJGLg7CLNRkwHKsdcxTGg34NZiCDp/4LB74kNN0/h1olbOi2N0kCyIJqgp81E6EIG82MbzjFfEvLqsskCxUg/Bv6D3Bp9hu6nzsJVtveGyepbe6KJ5XTpflsNUHBZeAiTW2Q9xXiwvwyvDJ7j1nDUM4YW94SqDnccn4DPPi8tykZ2HERAQEBAQEBAQEBAQEBD4yfgfLhENtFM5ToYAAAAASUVORK5CYII=;" vertex="1" parent="1">
          <mxGeometry x="347" y="110" width="157" height="80" as="geometry" />
        </mxCell>
        <mxCell id="CiZHQfEEmnzqguUusSTf-4" value="" style="shape=image;verticalLabelPosition=bottom;labelBackgroundColor=default;verticalAlign=top;aspect=fixed;imageAspect=0;image=data:image/png,iVBORw0KGgoAAAANSUhEUgAAAOEAAADhCAMAAAAJbSJIAAAAkFBMVEX///8NERcAAAAACBAAAAYABA4KDhUAAAkFCxIAAAz4+PgAAAhCRUj09PQAAATn5+gqLTPv7+/f3+DGx8hYWl3W1td4enxjZGaOj5Gur7E+QEQeIicUGB65uruDhIahoqSZmpxtbnE0NjnOzs/Z2dpPUVVsbXCgoaO1trhJSk2qq60uMDWBgoQcHyRcXF+TlJYVP4OlAAALBUlEQVR4nO2daXuyPBOGbweIgCjuKC61Iq3Wpf//371SWzfIBLLhc7w5P3YhuSDrzGTy75/BYDAYDAaDwWAwGAwGg8FgMBgMBsP/D+1wlGwn42gYx+uMOEij8fc0GfXbdVdNGL8XTpdRMLPhjN10HCvDcbyfHzRnQXSY9nt115IbfzA5HTNljksaRRDXaZ1/f4wmA7/uylZn9JlmX8ktlPaIm8lMP0d1V7kKyWF2VldC3A0PYHZI/hufsj8JACjtEoO4AMH3pu7qs/AXEYBTXd6vSAfs6LX75GoNNq+8X5E27D9fVWO4BLCE5F2wAJZh3WIKCA9zEPt8d8D88Goae6s5lJkZyuLCfPlSK4HpTKq+i8b1V92yrozW0vVlWBC8xtzRPoCnQF9GE8Yv0B0Xa3kDTA4C60XN+vwDOMr0ZTgwrnV23OwVfsALBOIae+NK8Qe84MGqJn3+h/IPeIFAVEtLDWPQoi8D4hrG1KSrT+BZYnegW+BUSxe84cBUr8CJklUMhgsTvQL1jDH3EJ0SJzq74A19EmsSqE/iuC6BZ4ljHQIP9Qk8S1yqF/hWp8CzxDfVAhc1jKL3EFC8nRponwefcSFRKbB/lGEuFMM5qlyjrqs5I9TQ3KsTWOM8cY+6OWNKEWiV9aNVgXiZE5UiUdEqPLGKVVjxcjkezs71kaWStACsdLxcvreKfw9KnI1+QCuu//PrcPrehZaEucQBL1pt/J9t/bC44zdjFREAtLWME1//JFycRJ0XxIZgdRsst7R2qqArJrSqw+f9n23GIKIRYPgwo4fd4pZPFMyKM8pMSMhTnwiXDq/GFkTPHYzSTBvWTLZA6o7JinN2sN6y4DsS13K8ZusHz7EK3OAWpPkP80krV/YaPKG6duGj4M/DU+fqyyCuk4371mwdpMMo4zTcxd159kPPuj6WwH5RYDPc0BQST+54GlHnespif7uGy3eBxiz++F6MNv3ebfxr98L+aPB2SPdHuIy/La/YXxjOaFMQDGUKpA1pWUG0Lr/MPlJ3shihA3s4+DplfxhTvoifUh1bUncZXeqCm3h92j+NSoc69d/ouz76StGaybOEf9M/odtVbI1eIs1nJauQdoe+HHMCxe72FfJ2QVYhyCdseKlip8kXUrgsk0YPm8C9YY0K3bmcwlHzaK0KJfXEdoxZLpyd4jhf1LZn7WWMArR9728Za8UjDW5gl7IXjlE3mqvULvSPZYD2duIlDBgbBaDO+HKIivfd1+LFPacfDOuTYgttb43bL+2TcAmseFHFzpI+o3zSFB0H0ME6w5HQE0TKB9H4PnycyV5iQ2mQ/RDvhg9mIi76bBuw0hCCkGY8uStfbDBH1r1/BZyUTvlvTJuP2LrGpxmCrlhdxbMF06XeFFo3oovuyxtUHsmzY/REItRM2SPZSpYQKsy3LDQQsKZ7R7rVsgDWa+4UWftKwlpQkKaOaDN/hw8GVsw/6Y8YDcROJQqhw1gai3iiGO1DhfOgkJON1kPAmHHCh7FOJFEFRoK/aZu/Hnu8G6qfKX7xd+h5B4vbsd+fo+3fyftkVIF3FzLnXXUM8MahMRqyzagJb2NiDDSg8ZQAvsXg3kG9owrdhlQNOFQ34g/ccz4+0BQ6DlWBdxhrzflYfKIV3lxXwUfPFhNOB4avqHtzga8fgW9UpzqYL++tqfWQR4QuazgHPbztE0uyBhyG6ZuvPeHmfFfHxukGPnNxbhHxeGdL0MZVEbxBPUYtlQa3QsnwGFSAoXDF9VDEg54p1LM3/IOhkC98CI+XfS2FB66H4ou211L4zvVQXKGoNb0iuEKbbwWJW4O514J8LFCFTb4IMFzhS82HShQSnZsn1tTV4rPU4P2QOFqTreEDO+dIgxu8SUuxS+YRvEFxKmQcw3up3ROfq53h14KtZBEoDfQsB6dRjOEd1ZrLIWzi9ga+uuDWHxFLc3VYhk0+uz6+P9Q7ITJOrnL2GMZ7a4DGVFUfHbwqfKMeKw5D51BzxA+N8YaesRRqOFf9S8iqCudzLdw/aq21rWoYwzqxOZ8bMOKhtDkuWEEv3BYV1qFYbc6nkBUByttfGNPFeROsqZmyIrO4x7wBM/JSz9LUZ3QXYvPWI2SM0Q0vkKqEBr6/F4rERqP0s5fX1BKMETCyFgoYp1khUXoCalifkHd3mIEcyvt7uIaeuGcF8QqEmm+YOY+trvJ4DGaIKyH81gZ/x0xZpnzpxgplzyLNBd4yOxEG/0hdjnaKR3w1BE8LsDtiw1F7xLJEziahEx89xuI7w14r7IoMO0MG8YT2qbjN9PcdBsokfpXIXSAwV2SwlqaXMoaKdvvTMskZBE9DsEPZfwpJlfTFzzLpYAhnpMkVPMrjKnGv4ODMuNTbFT7axVwyXbDgW4qqG0mjXMniZ+dwY/NdSQVpO/jpLUteQiAhfrBgQiJn8mXZnrT04v5XXDYBDKcH/57RsxoPbMtqFlz0QGTd2jCNSye4Ja4EW1H6GLzq7BYb3w8Hq3W+GmeNH6Ldoj85Vrglw5aR4OTR9E3s60tLipoSwHE54J4eN59BtYxhUnZvfvpgyrsLK/VXTsHbdsFeR9vK91Sdm8VhN694R40nsq248biuId7dmDloFb1wYnXAjj++t6FfpgK+30vexukcwKuaX0rS6U5//iDD8u662ojWpjKVAK39acV4ehLtGj8JlTjS2fEftHjiaQ/lwvA2ZCZozQiwLf8CeaXlnZR/zunZad5MsGjKVtcq0R1PvPkmraMsgfmlm3vXATB3f6l+0ptz5luU6d4Lnj0j7q2B+HRzplfOkFlim1uEVFPmKJfx0bqdNRrRM52Vm63ajIOcxRBb6n4mb5KybxZ9Wjt1yhr9sTRNVCSsSO8pSAx3t1/aFdewdAwI22KYx5JtAcubM8jNeV58mQcp7UFF0s5RkZ/KIX8svnNb9Yb7AokVTiDjIeWFAqXmFLyIyK9e7kZrP8hPixVOlJUyeN3jqgh1yVv2nPuPNHEeXwFpVjBssGItniFq0o3kfW0PwVajaH5eXGb7ZULcDszTaXkfuF9x5QZqIs7CnJvLeYz17n8Fjexe2I7XjbaV9t4+NYdnIdLH0T/yh8bzU3o4SpJN5QAGv9qcrybZdUYunFxWa2HFIjyVqvBsZ86NIeltVlKo9HiuHzzFCDblpL6sotBWmwYg3D/tMuTYuiso9PaKz672G09jgpRg6PIKLUv5/d2Dp4S0RIbE0gpdxU71H54vYiHwIdxuyip0Vd8yc2H6vEKFueg90yUVurqul9s+S3TBngh5nsopdPXFXS9yJkQCMD+tBkk/DHthlm998X0iFdalZRRqaqIXBgXOE/e8JHWO3f262z1m97J0QK5CS+8xpMW8MC6ZuK5rue7FISdXodfQfDPwpmhX/4hUhTBTPg8+00uZQZESFcKujpvWxwxPnzyFRDAqiJu3Bmoiq6IQzxnu8SWFkAB+Y24VhZQLcy7P0X9T7l3NsJYqR6ELUR1d8Mb2SDUiSVEIRGeypkL6H7TQCQkKXThpPU9NYUD5jOIKYa75Imca7UPhJXeiClvwXm8PvCeMIL+KE1PowVBjTr8SbNLcvXkiCj0IapwiivEXaefRDciv8Kxvqy2vZhUW6cN9a7wKbYiL7id7DZIxwN9Kzj1WqObV63PeWZ40b5Mq0nvbXQIz3Uq29+T3f6C70prKjws/OcTnLf6smqn4q5vd0va+0JoShp9ekiRVP0WYbCv/j8FgMBgMBoPBYDAYDAaDwWAwGAwGw3+K/wGPk6jZ6lVK6gAAAABJRU5ErkJggg==;" vertex="1" parent="1">
          <mxGeometry x="50" y="110" width="115" height="115" as="geometry" />
        </mxCell>
        <mxCell id="CiZHQfEEmnzqguUusSTf-5" value="" style="shape=image;verticalLabelPosition=bottom;labelBackgroundColor=default;verticalAlign=top;aspect=fixed;imageAspect=0;image=data:image/png,iVBORw0KGgoAAAANSUhEUgAAAb8AAABxCAMAAAByWF0wAAAB41BMVEX///8AAACurq5tbW3z8/PJIDfV1dXMIjb3miMuLi7i4uL8/PzpeCbMIjWamprEIDy1IEzx8fHo6OigoKBkZGS/v7/KysrDID2yIE+8IEW5IEjb29vU1NTHIDm4uLhTU1OPj498fHxISEiGhoYSEhI2Nja+IEKNjY3FxcXmbyg/Pz+uIFOEJ3dMTEwNDQ3kaCnaSy6pIFgfHx8lJSXgXCvYRS/0kiT2lADlayhqamrhYSqnIFvcUi377/DIAB99KHzyiQfobwDyuqPVPDDSNTfKESrhk5rQQlHSVmP13uC5ADStADvIfZSnAEuIGm796Nf1mTPzmUT4yab827z6v4P4qE33wZX86934oznxso/4r1/42Mf0qGnrh0nqfzX0qmzuiCjyt5vtpIflcTvwlUroiGPtnHDjYhbkd1TfUxPnj33tqZfbRQjwwLrVLADrpJLjfmzYPhrttbHaUkTxzc/hkJbbX1Xca2nPDgrmpqvadX7cgYjHQFfXZ3HUeYbgq7XDXHbXlaO+Q2PiusS3UHXKp8CZRIGUHWjAboyoapiqX4/dxdW+d5ieT4a4i67VwNN6AFm/mLePQoVyCnVvAHSbZ518K4CNU5NXAHtqJIeMZaOimbcUAF5AL3NmZImpqbtcW4NhENTqAAAV3ElEQVR4nO1d+0MUR7aeGQYQmlGYgfExCDMgimhUVETEGR846jDCZhOzeXiTm6x3l5ioG1y8iiZBgqxx3cXLxcc+ssn+qbequmemu89Xj2YYE6/z/aAmXV1dVV+dU1+dOt0TCtVRRx111LHxSA1GILo6AlUT7cHVRLpq1O46OOIDYSk2B6gnIq/msFWz1tehoC8cThlXs1lVTaSG7X/D0aoad/OB36Bq6giKhHLg+02reUtZjbkZ1xEQvcqBf8uwlm5lLeH6+lczqAc+bFjLkLKSwzXtwRuNlIY/M8tJqisZq3En3mD0aPiLG9VyRF1JkG1IHYGQ1vDXbVKJbhIka92LNxedmqE3Uv4HNJVEa92LNxeakTfaQCgiLwIHat6LNxYdOv56DSrR1dFZ8268sRjUjb2B7agjAOG6fKkhlFFLAX0d2irq8qVmUEdfOFp1VeinQF2+1AzasQ/rDu8sfRWvpCdvJLTyRb947dHWUJcvNYNWvmhjX9HqZ0Ad64Z+7QoPqGvo19dQly81g16+aFYvAwccDpZFY476oZSBfNFEsDPVToB141dvnz7963dqU/frgrgJfyr3Z1JBjeTL6KZjx46dfjtbm9pfDxjIF3UEWxf95qiNfHl3dBMn8NjpdRBovfvu/w/fayBfwuG0/H7d4a+AuXyJx61UU1NTKhWPasf3MuNPEPhr4+pLeGd0dPT0FYOC0VSqu6enZ7C7dQPptuIdrJOpOKiyO2GjJxRnf4r/1cT/SwoT+RJuqPJ+A/kSTUbSDb4MqJbO/ogi7em9TQLMAH+jr98N6z3B/On31aVSkcxhV2sOdCa0gSgt4pFMr6vSvv5B7/XyldBY2M754ruzIXmFJsOv2EBokpacnut61ZpQJM90RiRTf3RTmcBAxvGrUec2hd3G0zAntiWhf1K8J7HZQaLH63l6+kCdDe5Zkd7cEA4fSfcnQ5xlbnfsvxUneEbyRaEf1UlLJQaU/U2ld+kqGGsC91mchg8EE59+qHyCF++MlmmXedAuNM4OMhpn4ru1YjqWdKkac0eHW+14pQiK7HHWJ7n/NJIv8hQms9sT8t5aCS15Ar10C/M+50H40LfbzqjH1I3LLrPFfjeiySVQnmc3+EuXGq48YnN50Yh9XiDSwXq5gexSHSDocl8cyCrQJC05kMsXw8dzEA0s3OBHgr62MyZaROCjEn2cv/8ABXSZBBzyjCAayrc7P6iZppXeZWxvx+huYv/qCfdGVNtnI/khZUCXtORAdnhkMlQVZHx3l/hj9LW1mTrQj48J7t6zlSvlr6nFqC3SDVETKco1iKXfZJVd5ICdMD3G/mI3Hwh3ZMJ98v4Yjp3EAZv5vl34ZkuxyED4CLzCqbi86VNOX9sn8i66H/lJ26fsptGPbPs79p/+AhnTtsgUOZ2SbLns0CV3cZT8rFj1+NDuEcObYT6uavkSThs2FgIfXxiuvG5419F3zjAyLtv0tZ0xUaCMvrY2Rt9lyfpntJd1ICEwQwpmWs2GaajcBke+dAnnGLVU8qWrqtYa3gzlS4CVrwKP9Dt7hvtNwd7evSYLoPXJXlb27dHLHzgL4Ol3Pde1STweYKMwEwQQtoaJ2JaY5H/t4WPXHVS+DIGdD/TAtL8HomhFRItnZl1d9HhQzt/Mh4w7jpmzKuYErKusHCPwNx+UBIx3A28SCHQD7WkMjkKlsN8TaijLFyEvnH/JAORLC2wEGg9aqgPOYSBfjKJ2mmacnWG0fcb+2Hv8+PGZ32rYY/TNHGdlz3z28acl/Jf7stFO1tdbAs1LIAb1xZNiIYyKv5Js6DqSiqgPqGUz3JSD5YXabgL6IBB9WXc33dGmszOMNv7HQY7f6fi7OnPwILvhw9+3lXDGZbPRw/qH++EXxKH1z0uB4N8IQPIlBQ/UaRiSWumREJQ0VL5ITnwH9vTwsLUVTXXJQjJpVy1nGSEz/I+DJxiuarr6+bUTJ1j53344s7fMX2VSRs2UtA90Ugf1wR4owhwSAPnCZRBYxOjcoCTzXS2YgLRZ0FX1e90R3lq6pzyj7sS1sydsHL2m7ulX144eZcV+x53uXpvBM5+Vr1oS6zvQkNgcSfTLNsn0WE1S0AzAnjUA8oWPNrAPQgItI6KcYAIS+YLWyD4SH4NbG7ctn2UWde3s1aM2ris7+sX1k7zQ1SszzIc6BLpibnBCdbqcdRIaFnknVbkdG0t0peLxrgSJsJVg+qJzBWBiCUOj3oTMDdoKwQBoll++oGxRJMbRBtG9jznLTOral59zXk6ePHldtQH88jorwUq/z33owePCBF07DkSOP0xNAyth6pXk27FO1yyWBbJbFD3AAJWIhW6M/G//BoLONEEB+AQFib6AbFG8lwL7GHfBG4y/o198wcnT8Hfj5iFR5Mrn3IcetE3w4/JlMJwDVPNZYGvnP1eTbWr7fNVJAgXyHmAgc7ckPfLdSqesuBGsWv6tPzA/SXxPs5be4Eb1+Zezgr5Dh0LSLIrCzZFDhw6dvH7rD/YiKExwplwcHGHClQhtq3y+RbJQUgWABbisAzJI5AtUkd6WUjuzI7rAtvyNB6ufJL0NTAb3/mFOMHdj9hDH7Bfz5yW9zM6OjDACZ7+6Yi+CgsGZsvcE80kSnQbt8e3haQEOdFqBXLbilB0DmLuInaLp4W0EmWiOlwQhaX/rqVeU6WYwXm6m5zhzs+LPkZHZW7kLkmp2TkwIArP2IigInPl9+TJdK9Ky8aIe1KtAsXyBh00ob0GTJk0hky9oGfO0lD7dMQzQKr98IfxJvywCppf7cmGW8zbHrWtk5I8Xzt3FDvRi/hwn8Gbhj2IRtBms7BbpVJVnC1C35HW0UL5IcvdASZP3ZHV12KoL+BSPxCB625k6YONB2PHLyjHpq2XUUj0eJntzxOFvYmIiFovl5lAlt3OxZnZ99tYfuKE6DF6rUE2eITnt4qCyw+vykHyRzQawZVFkiUEAcy81nl5xTw46zxwhDbwCaFS8dTDV6kCR2Q0mg2cSZW8KXv57wqYvlp8HlSzdjcWamQHembs5MlIi8HqhfJ1qJMXXNoCC8VxH8kWWLUPddjgtfzKEQiyCdcx1I4lWlDw30D3Bg0IlgCie9yAsx5m7fX9i4lxM8Heb1pHN8SuMv6xYBG0Gr98oX6eORplrpRwV6M+kR69gF6/I8oRQiMUMvVSZSJT3lPw2o4/HIKDtu3cblY+dOzdx51bOpi+Wv08r2RJrbo7FGu8W7kyUCbxZoQ+IYWWqMfXobueP5IvUvwABGvQLf+B7gaXRBiK/QgTJBij7SJA8st60ZagFvEUucNd4bi7XzNlrbs7Pk2fdyzczxHLzt+5yW+UMzn7lljlUUSrbS1vkdo/S7RgCCE4YjYuyNeXpBJpS1lHU/KLyGo8EbZQNKwMa59/nf5PnVlfINdvIzfl3gAv2pdiFbO4cB2PwzvytOxX7A0ExVavAguPJvaWX5asHTYkJuv1TxbqAK0iXrpHgaNnHg+EIqqkEuiVvhPoWk/vcunKFfLPD0vl73utZh9lc9kKshHwud65SIkOf0SlPz0VHIu7lAcgX+dGrtndaKGNd8mtUo5TND8iXoF/dbYo0yDP4fAv8PGcuv3QxZvN3L+dbAC/EGgV9t+Zzzc1lBl3bDMl3F1ogcGaLOyBEr8r3IsBAgsoXMMkr5k4PxEobCGJ+lWhThtZoKF+i3cnBxFifJvvHN5uXuH3lb58vGWDe6z9v5xsbGYGxi44dOgZ4sVIiWP4phEvuAErkJ3ogwhX05RhlrIv6gsOSPrvSI9YjX1q70p29hqffvlvFyhe7OGfz19iYn/NebRTIWRdizRUCcy75ov7gsxFc+hNoBnlGBJg6upHyQ9majKx+8r8rNgvckVK+tEbGzLKdHfjPN227ypeIYvwtuK5udehbmC8JHM7g3VuVEtUkizlwH9kB+SL/ahF1fkGjn0C+uGJd4OxG2DfZWLjMzyz6Unp8OnCq5B5/HflmTlAhbzMVu3fhm8q127GdO3ey/8m8Z2OFv7tuF7sB7tM9pajLUhzIUucXNHtCfVQncQbUxLxvzvghkS9WJJDhOSAL/MWYsDrxF8PWxnz5UiG3ZcsWxmAuy6869OVzt9y3V5VsZMPNH72qUJS0cFClp5Qv6IQ4jW5yb1pASAjluIasdeVeg1jGfW55+fPn8407BbZUVsCvt2zdygjMzy/Y3lU4z9tZzwq5vlZ44GIIyBf58gcKw6FSAMgXd44GvdqHHuvWz8AhIvkSLE3dBVLTvPCcTMAw6gQaS+5xYXL3Vkbgzq8tx7kyAi/c/+ZuwXV3kLcdZHDNeOCx5MF5EBwMGqgCrXEvt8DBbaYO0u0/AOVgAYgGz3MGz7LBidu5M5/NM+q2cmxxNgfW5O7dnMB89ptGvgraDOY99K3nBRoCV8hSc1rpBS0cNFClli/QGQK4gxVGeSRGk/5AJ8rHJPKFCVBudPnCbps9RtmkfeFbzt/u3ZPn5/J8FXTkacxD30bIF7dmpPJFcZRBCwcNVAH54kmUNuqdJ1EE+EWyJmvpG8okktyTgOMxsJps5cTtXPh2y24HjYKi7OT27dv5f4YYs0LGMCFKjpcMPtumwS63g6SXFV+9oYWDnrOp5YvhKwqeGg3kiyK/dSizOZKsOHCwfwGryT1heN8uTTr0bZ8UAuXB9h2cwMm5xUnhVTmD3yyc95ofThbrbdBirLNvaGioN9PvmVCga/KjqECFMcAy5KnCxNF5Jxjweb41Wfad1749Sf/qDaYX6MSCIG57gf21XWCS7+ALkzt2MAJ3P8g22sug8KG5i76bwUuxvev/TDCQL/JIOCgc9MlgGD1VmAQnLM0N/pACjFcdgJ9UocaMsnsKgr/JrMMeY22R/d8HOzi2T1oPhFE6JpjzmR8YgcAJYC5QRaL46k2gwhBAvviqQGPthXd108sXuHGQLBJ0d5NGxSaF0S0xh2mjyPgrFNvb29k/F+Ym7VVQmGDjPf+9tC1Bt2BuVClfgv48lE6+GHyZwjdbtfIFec9dkqA7KAs3w98yy2NGt1C06WvfcSkU+r59GyewPcQXwTKBeZJdSB9RzUfWaW0KRRKoMIROvhhsIHzpGkAxekuADVKLbNMK1BPcDC/t5rR9VyjuaBfYsRjKFrdtYwQWC4vFHRUGG2lyGn1EFV+ZrVa+BE0T0skX/auk/g0LOAPyFgB1SGMOYPLAclkuVdqL2aJgj/G2GLq0bR8n8EG02C6WQUHg1q/JrWC9rsL+AimSVyBf9N/m8U1WrXwBG0r5DKVlJcnJ33HeinPMZwq0L4Wm9u1jBBatB2IVdEww7xcv8BlV/MQrdS6KPGBaOOivW4Ldgf958IW3CvzREODxvPKFrqfyzwqBCZrGJReK3OouLQj+9u0rFpY4f/u2LRaK2xwCGYOTi+BWKpGq+JH6Vxx9MXhNXfOjHH7Xp5MvoDp5wgc42ZGMrVjttu3LFvcJTIUeDg/zf4SEEy2Z4Hfo1gAvrtgYzPTaeKuhP+HzVrTBgeRL0MOjjMHzlNkFRPbr5AuYMVK5ECQR9iGzun3FrEPfpejUMCNwamlJrIIlE4TrLB0D5f4v7j1e8bqrVy1fQPYoeZ5SgJIadfIFmJS0dWjrIisr/OXU0iX21/DwVGF5nPE3/DBke1HbBIv4xSTzFxE5/CuOd8WqVr5s8OGRgEqAEmPVyhcaXZPOdqSc5O9WCf4uLXG7Gx4P/enR8DijcVHwZ5tgEWgXDrBiyw/MSbzDu7gHCqjQ9xaCvvluIF/U52OksFa+0Osy/mCQOy3tyyXBHPObjLel6PT0+Pjw99yL2h51W/s22XvVaIGXKVDaPe90DyRf6MK0AbkvNICjiGBT5aGTL+iTPbht+FsscmmY5fxNZR+Oj08/DD2enn40PmV9zykV/BUfyF2T8eteIJvfJzhoRYEOjzY298WB/HdxwFmx7nUa9L4wXOEt+N1wVXLrX8aZ6S0tjo8/eszoY/wtFqbEKsh0zNSSYhTgESewQDA3fdZVrXwJGnjVR1844EByDBqV9Ux8EC+HDjQu+RKSojMFRtn4w8L4+J/3T+9nGA8xW2RedHhqalGpC/AOKe29J4qi7v7tNlhqAskXVSsRQJPA82Q5fmDfDWzVuybD4ygiF6SZaUplL5xmaPzRfoHp5Secvqmph9z2nkjEi0AGP2yoPyncqBVNJvAmyq9TA+W+UPmyAam7KNoj6R5yMVr5guf6W94jY3lGg3KBz05P759+8ni/A6ZBH/1lSfD25K+rqhuVn7tS5PQTX/VLlC/SDQR6GijqW5Nln4DORJri0Wg8Kf8sGKjMhxXG38rTNcHe2hPxj/99vLLy1+n/WVEPREb1zACNoWVqKl8MvrLDIUmBQRINyBdfSMEsn00GuRqILq+sPuXEWWunTp1ixIUcN8qxrBkIgx/upaDUgNUDSAQHwOiDxs2BcEYDhN0LjOuBcj7pUF22nqqHhcfTwu5eMv5OrRWW10oE/ln/u2Tr+JBsmtYC5Eug3BdtM30ArYJyCTUfxhWAOvHvMap72Uf9blz2OePs+QvO3/PQGrdChpWs/ItoFQROBkfTt0r5EvTFacV3X7xASzg8NADTmJyIVPW2iO7dxqdrp55nGXNr2VXuRhmDK6uPNYufjYBZoDCOUKV8CfriNDB3fP4EtomYaDCLyTxFO0BjaI+nn6ytray9sM1PELi2ppSeFQQh8DCeR7RgIPkS9MVpvVh0ADQHXpf18iW0zl98cKCLz0efr71Yeb72LLr6bM3GY+Vv9rph7kIlOh/MzEDRF+OWOgCjjecV1RySYwDQV7PnErQkQ1HwHpO6Q9Hl56svnj0PrbxcfvFkeXV1dflJkAMZwxdZhmQiCmzH5I/fAPkCQlS4IJ1YeKoA/Qy/5ZzRDdFhYd40VqpPD1l9GVoLPYuGVp6ajoK7/Qa/xDQg3xFQA1Z8SZAWDvzjznRZk531+5mWeWraXXygrJ7pAyVxQHSTNkDR8ZLt4l9ywfJc232EpCbbtVN1QE57pfCItHDgrKlWn4PaJU3V6PAcBvRJvXq3bwIfkZaUHwpnKv1o9QVr9Nk9y8xhPXnGVc567I8DxqlttCQ0iaG+hUHqaAX8okJu14rGltHR2qTUdtHWpu7uVJwXNa1SUzQCQsIN/p8pTnU3ldCdMljL+Pq9+nd9OSWSaeBHe01+tNiKp0rNhb8q7UG0tVy4qSmodvlFoDXSv6dz4Ei4ZaCvoT/StTF9sP72jyryN0voHkx3ZjK9A0MNDf39PalqMurrCISV1adGG/Y6fpGw/maFqnWgdfx8WFkNhf4R9BNidfxSwM0v9PSfP3cz6lgn/smps+oO9DWFMD/mQF9LOV6HbX51B/ra4gd702z962duRx3rwk8lu/uxrkBfR/xQill11R3oa4ifKqzVHehriB8qYcofNyAGWserxU8/Vv6drDvQ1w7/cu/6/v1ztaLW+D8oquE9sgKawAAAAABJRU5ErkJggg==;" vertex="1" parent="1">
          <mxGeometry x="320" y="350" width="230" height="58.14" as="geometry" />
        </mxCell>
        <mxCell id="CiZHQfEEmnzqguUusSTf-6" value="" style="shape=image;verticalLabelPosition=bottom;labelBackgroundColor=default;verticalAlign=top;aspect=fixed;imageAspect=0;image=data:image/png,iVBORw0KGgoAAAANSUhEUgAAAPUAAADOCAMAAADR0rQ5AAAA/FBMVEX///82RUgdkbQ3sdkbgaUioMi92dc4NjM2MSw3tuA2Q0Yhq8w3QUI2Ulsod5A0xeoaMDQjNjoqOz8udYfBxMU1i6IwQEM2QkOXnZ43PTwtfJDv8PDT7Ow0vuI1gpcml7NbZmg0sNA0ob01kKgvbX08S00yX2sSKy/09fUmbIbV19dtdndJVVgjo8I1S1AwaHczWWKtsbKzt7iBiIrQ0tOPlZbh4+OSmJlze30fe5wAirCjqKk2LSZha202IRM3jaoAe6IqZnzQ5+ePxNPj+favychcnrSFm5udtrUAHiQAExokmb5hrMSl0du63uR1tsp7qbZ4jo6hurmPqak8RIbCAAAWmElEQVR4nO2dC3vauLaGoyZpgjHEEo7BIReaBJuAwx2XlDKcZNrTPZszM7u7//+/HEmWbdmWL9xph+/JM50QI+u1bktL8tLR0dbVgPUYwer2c7MtNRQQI+UXp5bkiKRfnlrqPkbUlX51avn24uLihv04/15cyv8A6s7lTffhQ/f+ufvhrntzafwzqEHp5vPlh89395/zD59vruR/BnW7dHN++eH87v48/3B+c1U+UP+KOlAfqA/Uv54O1AfqA/WvpwP1gfqfQC2Xbn67/PDb3f1v+cvfbkpn/wzqm7B+RmpgKpkFgPx4H1FpJerhGlmyy5LiHJ9CyXpE8irewsEflXXSZBWhjvo9y0JvqPjTVXykFQXA1lp5sglTt0tht2epU5a6t1dhkU+j1xrL+0hVE1cfZDXWi5RBliQZ+Xz+mf54utPlEu8NpQ7RC/JpPqKrpdt1FUPj+qMhe81QqcLU3fxjN9/t5NulZ3B7Bx4ewP2DLj9edB4v2rc34OEDuL8HHx7ADaUuOFddPoC7W/Bcaq9AXdOA3AESkJRtY1PqTjvfNvL64/PZ1d3Z5eXZHaU2jAvdMUnu788/YJOEUgN21cPZ3e3Z86O8PPVQAVIhd9wubx/bpS6Iqa8i1O0AdUlantrSgD4/Pj4uyEDa8vrg7qibCih3cscOtqZttUvbHfUAF/XpMRWu5Jq1drQE7Y4a0lbtCA9gcLB2tnjtjHoIsVXvUp/qAJhbNE53Rl1BXgU/Ps7NMDZcP12cdkaNB2vgFjXG7sgAba+O74waT1s7PjVt2ubWRu1dUVcVrlmzOq5NNwAo1K6ocWemz7iiPs51y8BsboBQpF1Rq5DrzKjmuLDHGyAUaVfUPdyFB6BxYUvA3JKFtip1eUnqSYT6GLds2NsAokDcnOvs8fn86u788vLcoe4aF2feJpQPl5+9ORe96uH87up8+TlXJUqdkzfQn1VFaliA8yo8i7wKN94P8ypw7odnx6sAbWHii1I/ysBcN/VU6A3Fw2ThNqKSLBkPEZFPo9d2ytisEiX976TcCGo4reLr7sVbWqzjMyoAJKE3VOxDjNldmpSbHgr34dQaR6RhN5pqrzIaDEaVnrqq4UKoxXxZP8V85ayfSinUZOSah6s4HrsG6gCYECImqJi1yirlj6nbEbfnFa61hYfLsK5kqRu9tlMudyKXXpJPo9eS3aVJuWmGrRRC3QZAg1rIQ68hBVSWdrUQar7fcjqle71shLyh+OdZL3eintNLme0j9Ts4uo9Uvs0HOjjyHdwzJVITi7SYC1F3JdbiaHty/ksakITM8ZLclLqk540CdQ2W6LD7QKkfCxeFDj84U+qukZf9wfnq7JlSh9Y0JYeaH8L1fKeQSn2EQNkIUxtl3Fj0wmtxNj+lms+KHUD6E6CZo9WoeYcoT30WpdZTqWURtZGBeqwBPVLWut6ZnYb1rgh0sloA+6tQL1DW6dTlZalJJz4PUxcjyI5mbVz3tdrPT23jhl0KFXYMM1F7yen3nlGTFTY5MzWZfS+1DLhv1MQ6m+UyFrW0rKdl36gbJgDtXDZo3Lkv6VXbN+qjES5szomUAF1c3oO6d9SksH1bPAF6toK3fO+ojybc8kcC9Asp6WU3cuwfNV3AZgZaSvVe2qG2h9S4ZQO5kAxtEOjl967sHXVfQ2QaT0av+IIms4/lS3rfqBsTBPEgrBdOE6Bf2mSib66yOStp9tEOzD4+J1GDdcw+1JaJ6O41OnKJkd89OZMObSWnkkMN8kY3X+jky6Vn/fZOv6PUpe5Ft3Mh3d7oDx/0+3vdoTaMPMBXXd3plw/63a3sUBeubvRL56oH/ea27VB7V+nEWdzpJlDbvakJNcpcOo6Bns9e23SCicyPqzDTqV3Aq5AXeRUcl8GF71XIi7wK3mYsgVchH+9VaNhqpQUVRJDLunRLmV3o18di8eXlpVh86hRknfiwiDNhsJAzQZ22wqrjdEoR4dwJfaSgG722Uy4LfaSSEb22K+Hpgq9pzQKKokBKjJF1Y5YLDFnzM98RRz0qElK0RR1HFaiFFesNzfxprLdQvM8SBO/P3GFlmSAf50Im2ZPMeco0BE3r4+LtecC5gaW9ULlMHWGScTvP5XIROxQ/E+S40U1UG0yGSy14ETdwoe2osBcyjMfibH7MEfPQ2OpElapt28krJimyNKnrppnbHwWdCFzvXZCAufpGO9x+DDfF430VNzavZ+2a7Nvbd2pufO6UgbKGFS4TyI97Ts0bJfp69hZi6qf9puZNMWw0QHUN1Mq+UwcMUB1IYCnMUAe4bepw75ymADQpauG6RqpXFASx11LDc7N5Rppc2J+fogA02USKREyDVF+ZggJ9IKZ+jVLnThfJXO5U1jNiG2dXi6R8Og8XtWgXTstMa+u2Epx845HLo3axc7nb81nmzOXojlbedRt75Sme/OtG5lqOcwQKPvdcXNRNPLNOc4GTvaiw7j8bjbNSTl2Ktg70YsRAimNukzk90AspxZ07LukSnS0XjzOljW0SPDXQH11uPFZHW3V1bKZvLB0jOs+A9R6z2smGKo46lzt1lkOB3J6l5Q1bjvOSrLM5kqQb89hv4D8UZXe2JNO5VFrip+8M3b3aLepwBz4cm5oz20zAti3kzq+g2eqRK4njxKeelRzPBJVeLs3jMkdM5fmtoevcvA/Phtu3p1EjmqQxM0JX6oUSIRcnnyMPv6CXvatlozjHE/HAWN1QBwi6M0bJjNt212QPxt/GodRGNQnI72azl2KReCYCWaMvWxps/sPPDE7ns9tOgW2KAKFvgM5t4AvHp7MSvjZyqYQTLxuly9lpJHmcOtDlwK6TMq1SWl8dDpvDodobtYAJEX8FBIIxzZ5YSnRHlYZI2mRrh+uZCKtMN3208fyvQ2R022VnL0jsy6p0dtzu0uuNArk6/lpnKq2DQjeQvCzHXI+gI4TCW3EItzLg64LdHyt/mFAo8rzwRJ5J4CxxxO0ly6bFrpYDyZcFolhpUv74t1Vx/AxVtd9XYzVBQDKeXBX3Qk9RvRIffzwFr34/w6TMxAP2iat3+6CTqD4VwHq3CWN7vuCnvmtiIfPJyZO85rfXxthO8ZPfNbMY+kVe9xsuPQTkl32h/iSEPimssC4tFnn302/Yu63iYuaT13XX7yMy/+Aa9i4LO6agT8gWhLW/wYUbtuzfYneFHcN8coJHamXtr3n0IZCfdl/YsdAFacl9c4mqmthO2TV1LDNp1JLQgbKiaoEqvgj2p09rahDx0E+kUW/iTb1lq/in//vzrz//XgN3PDMdqdffqKnMQC+eFfvTX1/evr59eVuVOa7rpiLzrA29nUgCF/iGSsZu/NOfX74r5o/r67fVSjuJ+aQtbS6OQpNEOV+0sO+/fIcAvl1fX69SyROZTwplIG0uZoYVLOws2J9+v8bmjdZ6+/H+r6WpEyv3yYmBp5cbDAtDgs8Y/P0yZPjP95A4Y6D5ddkqnsJ8YsgbjhwRLux0Dqesidn0tmRZpzA70OtYyouVCoPdeAbs+y/fSGHD8Ze/l0BOK2cGveH3jesS0IsL1XHah0NlvFQfnspMoZXJZqGPhuQtg8Bts2Bfv3/78tcmmLcDTRdFuGl2YiWfz54M8sflbLP0uo1VINV789D0PJZAhybGnr8rdtq6LLfnlGBhOzwTMxmnN96mHalKuI4Havl8/m5WfDWAs+DBqBdVNuYXIG269/bVwnW88PpKvOIvrmYnZC2o+NoxCpjXWR6RECobyzBnQj45KZLHur0IT2QRRbz+UWarQZKGoGJ9+8/GihnrVd9uWMam6aBFFpAkTdMQWWKyxj++Xn+5vt5Ma6bqytsOwTkh1paFwqtHdas2/v7tv1/fCDDV7wthZ0fGTbq80isrSwkPX9q36/fv33/1hH/xaT1lp14A2andWxmxgsL2OPz+Pqq3EHW2wl6gYlORUVqDOwijDDD2WIAdBk8nXhT55Im+m1TbflTdo6Mq0gBqCbED4InzrMWJcYumBb392s1h12KwCbmD/iXGEl0GmIi2aFjfehxhHlurf43ndtjfwrTL8hI9tUns5FXfTVoNG7dtCf0rGRt38/+zPGVQLwVa0NbOCpqqQfZnCbvygH5fD/YL3VWGNuT0XkQtCBIbt6P/XQM2ZiY7qszBLrrusComMYZ/bBobM5OXvJTabiu3pyHZtQfTins17Jcu3YzJ72rdtRo1SAylbxvDfmoTZmmfmIkmZP8lqid35ktiv7yWaaQmZc+Ysao1RcKFYf03Cfs/S2C/tum2Uk2p7R0zkYrIq/3QSirvPxfEfmJ7gZE52JM+LKqKQrhRPal9zzJzv7wyZFy1J/swVsWpMTIpN2zFF3i2Wv5ktBkyVAbbihO8tBoVha7jIW0cC55W3E+4kGWGbLb2sjVH1avTveUaQtNv4r7t95MY7pen126bEeMaA8c/CTJVc6BABxyi2vcfginZf8LcmJdsivfiAEDTquzmuKlVpI4V550D4h+G9dr3bz/+9dXHf3v/N0F9eXl6en1l7nP22gPxJ4OB+rOdSOZqOKqbLM6DRJzF1F2Mf2+3SYBQTfa28rveZepAh9PKT0vMVFVHlklCXPBuc0kKO9FJnAeomPXxZOVQuHsjW62MLRLfgwS89WJfIFb4imJqtfHH1UP/7qWq9tAJbjxutcbjMQlyPOn11aa9z/bHQQcddNBBBx30s6n6cZweiWINak4m+zPXtE2koS2so45MhJTaxm+TUVM6kdr4mUDOhp9tHcKTKmfX88Z3R0zoBH0Dr2ctJ2fT1VoiKyWp4lDXNnybrFIO1JvTgXoPdKDeoA7Ue6AD9QZ1oM6oRnUtZrLdH7VqNas2HUx8AzSJejgZTMn141E/k4d7WGlZJAAysga90BdE1I1JJeZkqWZliujJh9agn23xxFb7k8kkskxsjzSycMHc9v6qaiy12jK56xWYtvLcHPsLI/gbSj0wjxNQNyFEEEWhqh+REzadJgRNK/XQLXXM1iXMYEA/e2oGYoKR5WQnLFgMdV+DofBgSLESpijNaDgxxL+MFqVWTUlY50fRnCYGiml8hH5WA+/KjEzRmZF0A6eQ2ragIDKZpkzjWtpYfAM/GGiEWjVZPoMJ9SESJJRwyFpP4b+A/OdjS6KUSCbMvpC6ImSg3MLibqKYGyDveNcwtQsdpKZ73YRSxAfFhr+AvKP3+mZMSiQxFjE+QD2NuzUQv1jXM2ND1nlMIWoPOnDsbTPcqngeTdCtRb6guBwTHpouPwZiGIIItcUVnBT5QtTZVOFuoCEnyl4KtQcdODVYDebUWSH3P4CRcUQNlafmuag4aJzOdFCpjMZICddIjtry74TM+nhUqQxqCvdMw28UThQ/FXNa6atq7+PUvYEmpPZrHx8QZejnVFO0wYTE22txPZWGQr0KB61BxTRRqx/5i2b6Y49dCXUaPvXUD+FZ73kFMWz5TT0Yj8nPK6xzXU4P4NEH/eF1Azw1B811E1Xv6fE5PVJr3uAQCqrR9NGUWsCg8JNSQhuxK4HG6FFX3DatoVC37vUbWp37uOHdIFz1h6PpyM8KRy2G9uuYMg224Kbl3jkwgvl3huH91lMvqYgZYgOu0bjUtpsjFH3RyGsriHtNwztGOeWAZp+ag+bz1HPRzOgg5d2ZPw6h5t450sGq7vMQhuGo+bXcpXaTQiJnpleZ/To+dG8Q7WpiqGOg3ZKThAmp7JFw5yG4aFL0tACL1eKYKEre43KpXYiYsDRuS/IdvG4KqWGaGHVLFUPT08dii8evUv7o7m4Kin7BhYBxSxvea7iM2k0cxthg7gN2C9ttEOmxBSuMyjMFgtANllC0ITr5cmulR91nCQle12YmSHxAIa8bdKjde8fbf2MnRdcE+ujkRqrHXe+pEhorQ+Ofs0gQt0rgWRB+PCjW9yHBm2CsZBLOyRgErBT2ABPCLrnNj0VbY3VFbKcGFKIOD/p1KVCHAqr63a7i1sGqGcgHL9vJYtJU3v22Qy0yT0Nipes8SDYuZglOFaQOQ7s5FRnbQ3+89tswKx8ksI/ZnxL9JDUelBWdlnA9y59zO9a1ogynTgeoI4OTm1NBQn6fj+r+uMXKR7Qoye5kRv/iq4c4aucGKPHIcOfJOPH4WWtUMrg7eOroiDxgCUUr+EffFuHbvDM4CWux80CSfVVNrj5Us/jQxlyibLhJqhuuOGqBGcJqXPQYvrHX5yuBsmA1TjR0OONQ8jEJPCmrvcmBxVj2aa/NHqt46iv8GhDPVR1oKdI/+NO/0KNKWIl1qIUPRPh9Vu7JFZY1CXo6AaPOEl7QoxYu3LOxI/T4/M5bCg3LjYRV901S01q9BLW4vQmpm37nHY6i4lKLhmRGndg5NRat4U4PJvFlnWUDglfWwqO5NcET4ebI9XA5JFGPMxSFzdUVOyEtT0536zTBEff/KfLbNRRgO71Z4FQm30ODapHrk6hHziNMNBfZkEvLl6WVPPxaXA/mjlxJ17sQ3Pwuis2GX8Uffv3OW3TwbxI1a4KJZ/QFhnvWvJIqBzPVnXrKHlmWrTz8eB3Fdq0GLyF/Eiw8+DeJehhv8Xhyvs7qVitu2Izkz7HNqlnMGkcB2yyC7Vqk7PNq3XdXCY2HJGpWLklmsjvXGfC/iaxbV+58w+nx2KQhQxUP2uERbDdZWuV8f68WM3FKonb9RwnGFms97Ao7OKMSyPXzoABLhsIOzbngSPhn2nC4zhvENM5EajWYx6jGrgeD/c58L7FhjV3no4vpehXSw9iH59chbHfuh60R35WNYitpIvWRaxrE2Ix9F8KtcK6HQonpClw/pkfJalN6TGBG7ZuYQbvanX8AMPA773g7IJl64tZgYeENo65H16Uk7kRcR45vl3iOtnoKNvObTW1vDqUE3CBuYXMehIRmk0ztUUBBaXvQnLnkOVVFA0bLc976Fdp1F2paciX3fKS24vrqlEr0Al+JkSpTqD0yTQsPqpzxw33qOdBheNW26tVOyJWS50CXIs+pyb/C5/vD47BD0Fx2m5Pw6/kp1H57kZQWXxpqHYpuwK0oaIEIsA1/dTc4Eo68dJDG9waqpUDTX0rg1j44bP4O/gIOcT96bY7uXEChuUEaNbdYpylWr0myUVVHmr9YGwpvy62xIWVAi6tBjvniLMpGzA0kCAe9oV2t2urAWZXzFxP4dS4bCu/NLRMCa9Qf2nZT7bE9Flrw3L1U6obmL+yQ/SUmPTveTz/SafT4hVlIThZX+CXNyJSsEVhuReQb/vXilVwfO+As8Ltvuv5K95p4K1aBu6ZSH1U57KgEocUCC95hCVaRqwlr7THr17a4eQ2U2ISCtn46tRO/K4ZB4MNK3NwALYG1VAWxN/A6ytBeBdvd9xJcQJjE7noIekMzUJO9MnEM4uGmqYkxYoPOtRRxbv3YZeF9KR520IPbrENROuHSyUR9NKwL9hShhDDdke1PgPaGsWOyqglyq3GDmWPAc5PYKmuyMJTSBEayqkErjOcUY+qBCf26wvc6EoKokmROVUnoDO72GjJridPoHr4Bd71EwqNwmWrQuhvYm0D7G8G6YC+QVQkpVtRQpBMILX157ciu1EyFncNo1geJTm8qdQC8LyjTSaqrv1mx/BuAQT/4UIck/kCgcjVqZERPSInsxzGtiqhAG3UFKlkjMVeb5ATGYeZIAA17SK5vZg6EQa7v4xsI/xb5tKnGN0xb7ff7ajM2p01VXPX+HyRgZF66AL8+AAAAAElFTkSuQmCC;" vertex="1" parent="1">
          <mxGeometry x="366.02" y="460" width="137.96" height="116" as="geometry" />
        </mxCell>
        <mxCell id="CiZHQfEEmnzqguUusSTf-7" value="" style="shape=image;verticalLabelPosition=bottom;labelBackgroundColor=default;verticalAlign=top;aspect=fixed;imageAspect=0;image=data:image/png,iVBORw0KGgoAAAANSUhEUgAAAS4AAACnCAMAAACYVkHVAAAAqFBMVEX///8bFxsAAAAYFBhOm80UDxSLiosXEhegn6A9lMr39/f7+/vBwMHU09QRCxEKAAri4eIpJilBPkHt7e3My8ypqKkFAAWxsLHZ6PM7k8qTkpOZmJmtrK200ug1MjXw8PB1dHVvrNWVwN9VU1VgXmC7urt/fX9samzb29tfpNHN4e+jyOPD2+zx9/vj7vaEt9o7ODtJRkl3sNctKi1iYWIiHiJYVlitzeUdrcD0AAALrElEQVR4nO2ba1/iPBOHIT1RCi3HIgUB5awgouJ+/2/2zOTUlEOLu/4evXWuNytJW5J/JpOZKVsqEQRBEARBEARBEARBEARBEARBEARBEARBEARBEARBEARBEARBEARBEARBEMT3ZP3w1SP4vmwfn45a7vv+7kuG8l9g0/fXj1uzZbvzffvmq8bzzdn5tu37L5n9t/Ft//arBvS92d7e+ajYemM2rn3akFvgbPsfmwtmWti9798F/6dxfVPAh4Msd7vHzbF3L23WKNid0X7r++uz4v4a7kESxAfuHh+yxvNwh4LdGw3w+VfrhdblS8lAM3u3yXRvYEv66/RIvPnlej09PGxuH3d3thIN/HkmYHiE5v5jer1vr3+5/+JsH/682FKxtRkxPMGO9O+0Sd3Apv2C4X1Hgpt7oZhvm4L9wTbt8R8onjCQivm24cRusEF/3vj+n68Y2TcluBWCGR5+Cxuyrw0O4i/Kh0x4yGX3jRAC8qK+tikQj9x9hg0P6o2sGk5IXx2QW9t/+ZphfV8e+Y58ND/r/QjufnP+rt/LE4/p0xACDkgtEiQDvzlaPc+fvm2GELgf1e60KZo45YYHYboqcZ+mQA9+/2eejklzNDo0/vLm4MU3Q64X216rP39ocO8yz2N/K5esrCq9grRA8eT7P/Jth8vK5X+Qi6dAWq+n1N3v/PXFe/7D/KtcpVvf8F8b7b62fv8nBhP/LJfQS52P4L7kmXh/+xND+3+XS5Qk5JG4te0fnTF+glw8glCeCrbjj3Raks+QC89HXbO/s39yAedT5CqtU3cPp+MPLkh8jlxPhvva/WTz+hy5eAQhqzZb+PPa26rV8+1BkX0Gl24cj3NvDcbmp3rXnU3fkvn40uUnfJJcYFN6O+6u+rlEUJu8MiCcJp0g075oYTtrLTpG87CCDOr4d20ZQv9hUc88cNWdPPMb2d417ux0OfzaLl7Qlh3VBJ4ShyE+a2p+VQNoG59LVWwRkqZyNXqT6X7m1k5XZ1WZvE9n7vzCiopZYrotbn265nCseCzyyoCFgx7qxwwsFjsWtjsxO3T19UJC5oJJjFjEL4jZUo9oPBgxFjnlsrxzVFM9C3HjAib4yuACJVcvZlZZEbKpNpkAL2+aY61hyyAjV2MGXxc6YczCQXZiPRwILEIMg80x9E1aT32xixLGccsYKwygJ9s7IfOMdo89q1nMQmyIJqUuc9L7mnIbtZnRijioj54gv7HB+COkXEsm1iSKQk8IpgQOPKvstLJywW0VU66ueBZfHDYyTHG8x4E4IT7UYs2cbXsH21F4+wffzi93Ba9RZnJqxSsZscQs5I5b8vGFb3NmdkdqWs3jG8tKLyFXuCwdnPS7gj3jmrL9ZDJrsphPu3etXO0hg5XkoOaho/VqeDCxmLVmsxEKGsaZTZ3hJg2+QLhch7tUc3YcGFvZe1Vq6SXzlPGpcslECHzIGlGZye26iPltYllllzCXRMg1GzJjaab4gT1L97Ja4Nws1rlSrh4Dw6msxuNVJcLvDUfywuohhMcsuEarGVwaZp6TZafN697OLdavmDKd59YoZLE0hI4WkXlNpnZr+GrKJSR09E62ynpG4AOb+/fpSO0T59VYA+t55KVyoYSWFIDT3vOW9lVylWOLJaqPr7z6+B5r0UviW1i3dImnvjKvm/zduBC6hFMcXrXusjlvHknLiVv1oDTuKr3EWBZaLoeNpgft+uToqozN5sLyGzNlR+I0ZNJehfk5oEmDlc1pcfCmaHadXGU2TDuX/GFjfd087XoPYWUvy7DTh6OdG3q1pBdRjlBEXz1lc3vRqozNYvhMsduw+3mFnZES0xVXDwwvsXeMrqHe4eWIea0WyLWMstMSgwqlwMVy6WOEg25TnJswr/DN6MFdpE+QU270D1R3uXUJ6ZePwj1pXJYOjFxlJWjQSi7nVfgbJWY4PX2+FN7huqdyseWKd7fRkJbHN+nWQrkslomo8PDh3reOl63MLtAPjuSL3KnKxKZv50Sqr56cqXkeNOS0Yr10VVMRrZ1aLWlCXiZCglnXO51ESOsdsEEZbVn7qgpLz2IDXBA05EK5jhVAT4pLD77KGWV64JHqGDsHxF59XigMbvJOxql0xiFL0lGraRk+5V1cZ4WBlsuKVWciG1j63I4rgtlY7eKx8dx0m8Bjw9npqHC98MuLT8ajfTyRextsKT0COOA3pVs7T+bF9kW6asEtSD96Uli121gqdKIUbGi5nGfVqeWV1weD8nGsyk1IX6dTJjgmdFxsAkaPohTLtcreh98AziuAf2IXjFtTRzPPyzB39jXFwaCcTitkjjhrlSlZ6XVzw+CUXHoeNdUpHEnNyeQJZ+RSq4xOimXTTcFbyD3BNVF9BnSjcCP3JjEzQQs4FtcE4nn/5DfSp9TNqXlsjzORvig1n9Sdo78qkGtwKlZWLuugrLZx3nXxTYVu6cNyNYQ/q7PTEZQvrIwk8K8rdnWYmQVFeNq1/kUu7c8dvqrn5NJHwqfL1RZy8dGyU/LKPS+2fdXr6/Ebi1J7YEttXdYhO0zeXbQZxzqk3XdX8NnMd07kGl/ajJDFx+5fyIXhVbQQcUR3VT8m79C79QvSxfRLJoZnhg3+Jo9L46TTad6qQK6B+lt68Fy5uKs/l5uUPd7O5Xo2Owrk4t2JCEqPg98CbvzrX5xVe7qMAweLeQxKZOLDw8JcuWQgp4/xfLlgYc4FtyrKDCAR9TLxU8HJyOO4njhCsoFEIfgziQ/8z7NaKPSCoEhPP818PaECj87z5Kqa8pRK2c+ncnXPTBmA1MgK8Y+mBbmlGbj38uMuLMXh8w7W2WXIBQL7++KrNEMdTqk5pmGwFmRQypercSRXJ18udF6n8+LGxbNMPHQyGw6t3JArzqSMfOBcZ56KXi5wneX+ishrnC6tPH0xrV7Kw1IZdNA0Si7XySUduMoaLsjFKyLH26Z68FS6yqdt1BwCdBmXc8ZEKTjXgl/P7RXvgeZsqd4IiCIp/zodt4j0vr2X8sVLNc6izShrGZP8QEIepGa5C9TiBQkxV9ys5tE4ifWgZL1rYtzJ14rvbTwjcsOsM2CgWvS71EUcsWjqdodJy0ycdY2VNRfJUlX5ZNKV6+pVpSw8JN3koMPFS3KJNjZJjaR+wFJx0xRAn50QAVupXCCdpz4g7aajVpTrbOVF8ac8XRHXo3PAF0A6knD4QKu6suxFaVQmHWuuXLpq7TFmhPcX5RIFypi5PCga197xHYHlKH+1x5WS1tdeMq85stTmxRoDdOt3UHOcgq454YbwmJsuQyMpiKq2xZHE+CRbkFWIRvp+RaFLxLlyBU7mzYanvGDjklzCkiHD91r7FhNfG2kPLtwCO0wG7hTSD9aBs09uVIj8WQW8VcwmvXnPHeHipIXZscWFZstKrd7pVSaj/Jge8fPr9MZEFY72q+3RUVekD+38JKhjpozRSAZsfF+clwuex03Zchxd+E+nJr7MilBIXDCZfJd4zAbb9J3xThY7fPhpYCEmIHYOwxepZ0sfR3IVBF7DTKElZCOjau6y9N0ZjGhmzMBCQkMu3iCPqZoqcmHGXpV9fNWlXMdlxFL9ObVljw9IVb1LuFkdZd0oxoJZ0r2/hxYu7lLPwGPNjHN3TW/gxdk69RmuiFPHlX2agU6zQV8bXLViYgzElW06O6mpq4SnaE/kx0MPk94Q4Uvbk+3eyTDmU/WIQ4Un+IaZ1EayazHmX+4wUV2cOuKqTkvdepxOtd10Aq+LTqkA3+9fU5NY1YaVQWV+LgFt17qJO+h96IQBqrVKMuh96Oce404lcSu1hnyXZ3lGQNXoJckwJypozJMkOT9ImEC326ut8n4k8R+HB2uFW4eQVHnk8rGg6TfDs1fD2xP5tHjMNCy+kEC4t2c5vwEhMkCw9dGCwm+mehRxEvnkvoUgCIIgCIIgCIIgCIIgCIIgCIIgCIIgCIIgCIIgCIIgCIIgCIIgCIIgCIIgfjH/A/7AvudaKrnLAAAAAElFTkSuQmCC;" vertex="1" parent="1">
          <mxGeometry x="347.3" y="220" width="152.81" height="84.5" as="geometry" />
        </mxCell>
        <mxCell id="CiZHQfEEmnzqguUusSTf-8" value="" style="shape=image;verticalLabelPosition=bottom;labelBackgroundColor=default;verticalAlign=top;aspect=fixed;imageAspect=0;image=data:image/jpeg,/9j/4AAQSkZJRgABAQAAAQABAAD/2wCEAAkGBw8PDw8PDRAQDQ0NEA8VDg8PDw8OFRcRFREXFhYTFRMYHSggGBslGxUVITEiJSkrLi4uFyA/ODMtNyktLisBCgoKDg0OGxAQFy0lHyUrLS0tLSstLS0tLS0tLS0tLS0tLy0tLS0tLS0tLSstLSstLS0tLSstLS0tLS0tLS0tLf/AABEIAKIBNwMBEQACEQEDEQH/xAAbAAACAwEBAQAAAAAAAAAAAAAAAQIFBgQHA//EAE0QAAEEAQICBQYICwYDCQAAAAEAAgMRBAUSITEGE0FRYQcicYGRoRQyM0JSYnLRIyRDVGOSk7Gys8EVFiVz0vCC0+E0RFN0lKK0wsP/xAAaAQEAAwEBAQAAAAAAAAAAAAAAAQIEAwUG/8QAOxEBAAEDAAYGCQMCBgMAAAAAAAECAxEEEiExQVFhcZGx0fAFExQiMjNSocFigcJC4TRygrLD8RUj0v/aAAwDAQACEQMRAD8A9UVlAgEAgEAgEAgEAgEAgEAgEAgEAgaAQFIHSBgIHSBgIHSJMBBKkDAQOkDpBIBA6UBgIJAIHSBgIlIBA6QVClUIBAIBAIBAIBAIBAIBAIBAIGgKQOkDpA6QMBA6QOkSYCB0gYCCQCBgIGAgkAoDpAwEEqRJgIHSBgIHSgOkFMrKhAIBAIBAIBAIBAIBAIBA0BSB0gdIHSDC+UnLmjmwWQzz47ZG5Zk6iV8ROxrHC6PHt595V7dMVVYlxv1zRRmN+z7zEMrJnZA3fj2o+bu/7275olP/AOR9q0TZojn5z4MMaVenG7b1/p6f1L7oNmTnUuqkycmeI4szts875BubOGXRNfNPtXG7RFE4jztmGvRb1VynNX26on8vSwFyajAQOkEgEDpAwFAkAgdIGAgkAiTAQOkDAUB0gYCJOkDpBRqygQCAQCAQCAQCAQCAQOkDpA6QJ7g0FziGtaCSSQAAOZJ7EHN/aeN+cQfto/vQSGp435xB+2j+9ADU8b84g/bR/egwnlIyI5cjTxC9kpDM4Hq3tfRMbKBo8LXWz8fb3SzaXOLcz1d8M3PiyEPpjuIkrh3tya/jb+sFsmirbs5/y8XlUXaIxt5fw8J7F90FaRq1EUfgeSfUcoke4hZtJjFXnnL0NAmJonHR/tpepUs7eYCCQCgMBAwEEqQMBAwESYCB0glSgOkDARIpA6QNAIKJWUCAQCAQCAQCBoBA6QFIHSBgIHSCt6UD8Qzf/K5H8pykl4vj48e2O42EuEdk7r4mO+36xWummnEZjl+PF5Fy5c1qsVTx5cNbo6IfOaKMxkiNjTtYbbu7epPaf0jlWqmnV3efd8XS3XX6yImqZ2zy/X0fphYvxYNzh1EVBzgPj9j5R9LuYPeus0UZ+GPOelni7dxE688OXKno6XNl40X4MiJjfOfYG6iBDuANnvVKqKdmzn3Otu7cxV708OX1Y5PnJDEN34GPhurg7sEp7/0bfek00xn3Y856egpuXJmPfnhy/R0fqlqfJrE1uq0xoYPgmRwF1wnDb4+AC434iJ2R5zLXoddVVOapz/1E/l62AuDYlSBgIIzSNYxz3mmRtc5x7mtFk+wIPGotWz5Z36pDKWTvcRHAeLDjtJqJw7e312eBNjXRo01W9aN7zbun0272pO7n0vVOi2vRahjtnjGxwO2aI82SDm0+HaD3LJOx6UTmMrgBEnSB0oDpEnSB0gKQNArQK0BaCkVlAgEAgEAgaApA6QOkDpAwEDpEmAgzEvT7TGOcx0zw5ji1w6iY8QaPzVKMq/XenWmzYmVFHM4yS48zGAwzC3OjIAstocSoRMvOoMiPbHcjGlojsHdfAx32fVK2U10Yj3uX48HlXLVzWqxRPHl+rp6Xzmmj6sgSMcdrBTd3Z1IPMfo3e5Vqqp1d/nZ4L0UXPWRM0zG2eX6+n9ULF+VAXOPXx0XOP5TtfKfo/XHvXXXoz8Uec+LPFm7qxGpP25U9PQ5svJiPVgSsd5zySN9AGHaLsd6pVXTs28+51otXMVZpnhy+rPN85Joju/Cx8d1fH7RL4fpG+9JqonPvR5z4lNFyJj3J4cv09P6ZXXQ7XMXE1Dr55Kh+DTM3MY9/num3gUBfJcb8xM7J85lr0OmqimdaMbu6I/D0AeUjSf8Ax3/+nn/0rhhryutA6Q4ueJHYjzIIS0PuN8dFwJHxgL5FExOVsAiVL03cW6Znkc/g0o9RbR9xKQidzzbSwBBCBy6qP+EL27XwU9UPlNInN6rrnvdvRTN+B6qziGwaix7ZbNNEkYLmvP7v+MrBplvFWY4vY9GXpqomieHc9Ek6Uacw7XZ2I13aDkRfeseJenmFhh5kMzd0EsczfpRPbIPaCoS6AESdIGgVoC0CtArQK0QVqRTqVQgEDQFIHSApA6QOkDAQSpEmAgYCCTQg8HDyJJqJF5M9/tox+4n2rXZmYp/f8w8jS6Ym5OY4fis2yuIFuJtvHj3sXWKpx55OE0UxOyPOX3wpnBkADiBth4X3mEf/AGd7SlFUxTT+34L1FM11zMcav5eEOfLne6B+5xd5kZ4m+NYpv2ud+sVSuqZonPR/F1tUU03YxHGf+TwjsSfM7c7zj8Z3b9eQf0HsXSapzv8AO1xpt06sbOXdSh1h3xGzYMtHu/FyeCrMzMx+/cvTTERVERwj/c6p8mQB9PcKElce5uTX8Df1Qpqqq27ef8lKLVE42cv4eM9r45Dz15Nm9lX4fDHtr2cFEzOvnz8S0Ux6mIxx/wCOJ73z69+34x+L3n6FprTjf5werozu4/l6D5Ieepf50P8AC9Y73xy9XRPk09T0UBcmlzapgjIgmgdwbPFIwnu3NIv3oPG9Ec4MMEo2T4jnRysPMFpoer7l7Gi161vHJ81p9qaLszwnb4o6rixzFgeC4R3wuhZrn7F0rtU141uDPZ0iuznU4vg3ToBw6pnraD7ynqLf0wmdLvz/AFz2uY4rmTwt0/fFnyva2HqXuYeJ4l1cm877OfYCselW7VEbI2vS9H3r9yrbOafy99wo3sijbK/rZWsaJJKDdzwOLqHAWeNLz3tvtaBWgVoFaIK1IVoESgVoKpSqaApA6QOkDpA6QMBEnSCVIABBIBBQdKelMenOga+GWd2R1u0RbbGzbd39r3FTFMzOIUqrppjNW5Tt8pDOzAzDXc1n3q/qa/pnscvarP1x2w87bv3Pc6DI8+WR4AiJ4Oe19G+3zfeu9uKqYxNM9nV4MN+aa6s0107uM9fiY3AcIMmwOFxfVpXzP01djliJnbco7enL6Y8ha2MOx8rdG2MHbEKtpYeFn9H70pmYiImmrZ0dXgm5TFVVUxcp25488+L55AcY3MZBlbi1oG6Khw6oXwP6H3qKszTiKauzq8F6JiK4qqrp3zun/N/9fYyXEk9Rk8ST8l3lx7/re5WmZznVq7OvxcopxGPWUdvREfhHz9zD1GTTS/d+C406Ms4e21Wc5j3Z7OjC9MUxE5uU8OPKcvvI+934DL87d+RHzhKO/wDSn2K0zn+mrs6/FWmMY/8AZRsxx/y9H6Xylc8yF4x8nbtrjFxvrzJ6K40ozOtnVns6cp1afV6vrKc55/p1S2uquoyuVfJfVrvT/TV2GNudejt6ctH0J6THTjldZh5UoyXxubsYBQaHDjfpWe5brqqmYpnsbbF+1boima42dMNO7ymj5mnZhPYHbWD28VX1Fz6Z7Hb2uz9cdquzem+qTgtx4IcBp/KSO+EPHiBVX6WldadDuTv2M9z0lZp3TnqZ9uOWSPmkkfkZUvykzzx7OAHqHopbrOj029vF4+k6ZXf2Tsh88GPMyQ92JhyZMTHuZ1jHNALhV8/SPauNWmxEzGPu02/RVVVMVTVjPR/da4nRHWJyAYYsJp5vmlbI4Dway+PpXKvTap3Rhpt+iqInNUzP2bvon0Nx9PuTccnMeKfkSCjXa1jfmj2nxWOqqapzL1KLdNEYphpbVVyJRBEoESpCtBElArQIlEFaCvpSg6QFIJAIHSBgIkwEDAQOkEqQDqAJJDWgWSTQA7yexBlcLygYEmRLA+QRBj6hnd8lIKFnf83jY48CACDxpMIyovKVKx+Xpj43NkYWZVOY4PHJnaPSF30b5seeEsfpD5FXnjCpinYwOL3NYOHFzgP3r1qqop3y+cooqqnFMTL5w61jveWB4BFU53mtPgCVxp0i3M4y016Fepp1pp8VgOPEcR3hd2Wdm86RGXPkZsUfykjG+BIv2c1Sq5RTvl1t2blfw0zLgxukED3uaSYxfmOfwB/0+tcadKoqnG5qr9H3qaYnfziPO1asIItpDh3g2Fp37mGdk4kzw4ngO88EI27lXm69BEQ0HrTfnbKIA7TfInwWevSqKZxG1ts6BduRmdnW68bUIZfk5Gnwuj+qeK60XaKt0uFzR7tv4qZdNK7iEFZna1DGQzfbieJb52300uNekW6JxMtNvQ71yMxT27M9Tlysvc0NxyJZp3COJrSCS9xoejmq3r9MW80zvX0XRK6rsRXTiI2y9m6O6ZHp2FDjlzWiJn4R5IaDIeL3WezcT6qXjvpo2KbXPKLgYz2RxyDJe6RgkMR3sjYXAOe544EgWdos8OxThE1Q1cE7JGtkjc2SN4tr2EOaR3gjmoSkSpCtArQIlArRCJKBEoFaCNqRy0iDpA6RJ0gYCCQCB0gYCCQCB0oFZqPR3FyeGSx8w+i+fI2/qbqHsQw4f7haV+aN/aTf6lOUasMj5SeieJiY8M+JAIg2drZ6c82xzTRNk9oA9atRMa0ZUuROrOrvY+PBiviwe133r0/Z7fJ4M6Xfx8Xc+39nQ/Q97vvU+z2+Sntt/wCr7R4JMwYh8Vu30OcP6pFi3G6ETpd6d9X2jwN2HGeYJ9L3n+qmbNE8O9EaVdjdP2jwQGmw/QHtd96j2e3yW9tv/V3eA/s6H6Hvd96ez2+R7bf+r7R4GzAiHxW16HOH9UixbjdCJ0y9O+r7R4G/Bid8Zu70uef6pNiid8d5Gl3o3VfaPBH+zofoe933p7Pb5J9tv/V9o8AdNh+gPa7709nt8j22/wDV3JNw428gW+h7x/VIsURw70Tpd6d8/aPB8ZceN3NpI8XPP7yk2aJ4L06Tdj+r7R4Pk7DiAstAA58T96r6i1Ebl40q/M4irua/yc9C4csSZeZFeKbZjREubvo+dKaN12D19wXm3Komr3Y2Pbs0VRTGvOZbY+T/AEg88Nn7Sb/UqZl11YH9wdJ/NG/tJv8AUmTVh16d0XwsY3jRvgs2RHkZDQT4tD6PrTJhcWiSJQK0QVoI2gRcgRKkRJQK0HzpAwEDpBIBAwEDpBIBA6UBgIJUgdIkwEFf0i0lubiT4zqHXMIa4i6eOLHepwBQmHhcG5u6OQFk0LiyRp5hzTRv2L1bFzXo6YfPaXa9XcnlLsjffpXdimMJqVRaCywTIH4+zEjy8SRjhlPdsbskL3AufKQTE1jNjhVXx4k8sF+u5FzEfs9fRLNiqzmqImeOeDglDdzthJYHO2E8y2+BPqpbo6XkzjOxBSgIBB83SgcuKjK0Uvk5xPNQvEYRJRK16JdG36pNx3M0+Fw66QWN7hx6ph/eez00vO0i/re7TuezoeianvVb+57VBE2NjY42hkcbQ1jWigGgUAB3Usr0UiUCtBElAiUQVoIkoFakK0ESUCtAiUCtBKkDAQSpA6QMBQJUgYCBgIk6QSAQOkDAQOlA848pvRJ7idQww7rAB8MjjaHOcwflWt+c4AcR2gDuN9KLlVM7Jcrtmm5HvRlndN6JOyY2zY+otkjdyPwUWD2tI38D4Lr7Rc5sk6LZ+n7z4rCHoJIflc99fUxmN9+5PX3PqRGi2I/o73c3yd4hY4OnnnkLTsMkgDQ6uB2tA4X4qmvMz705h01IppmLcRE88MnLAY3GN7droztc09hHYvXpmMbNz56uJ1p1t/FG1KqJkHeoTiUDN3D2plaKXzc4nmoWiIgkShLK1gtxoKtVcUxmZXt26rk4phoOi3QyfUC2XJDsXA5gHzZJR9UfNb9b2XzHn3tImvZG57GjaHFv3p2z53PXMPFjgjZDAxsUUYpjGigB/vtWZvfW0CJRCJKBWgRKCNqQrQIlBG0CJQK0CJQK0Q6aRJhqgOkEqQOkDARJ0gYCCVIGAoDpAUiUqQFIMTrnQ2WOV+Zoz2487zc2K/5CX1fMd/vhZKmJUqoyrMfpVG1/UahG/Tsoc2TimHxZLyI8T7SrOM0zC/jeHAOaQ5p5OaQ4H0EIqoekvR4ZP4WGm5AHEHgHgcge49x9vhpsX9TZO5k0nRvWe9Tv72EmidG4skaWPbza4UQt8TExmHlzE0ziUFKAg+EuXG3m4egcVyqvUU75d6NGu17qVtpXRvUcyuoxzBEfy+TcTa7w3m71ArNXpf0w3WvR3Guexv8Ao75PsXFc2XIJzckUQ6QVG0/Uj5es34UslVc1TmZejRbpojFMNeSqrkSgRKCNoESpCJQRtAiUCJQK0EbQK0QVoFaBWg76UJMBA6RKQCB0gYCB0gdKA6RJ0gdIGgSAtArQc2fgw5DDHkRRzxn5sjGvHpo8iiGUyPJxhbi/EkytPeTZ+DTuDSfFrr9gIU5VmmJc7uhmot+R1h9dgmxo5D7bU5RNuHHndBNRnAE+pQvA5H4EwOHocCCPar03Kqfhlzr0eiv4oy+MXktf+V1Bx/y8cN95erTfuTxUjQ7Mf0wsMXyX4DTc0mVk+EkoY3/2AH3rnNczvl2ptUU7oaPTOj2Fi0cbGhicPnhgc/8AXdbveqr4WZKCNoESgiSgVqQiUEbQIlArQIlBG0QCUCtArQK0CtAILOlCxgIJUgdIHSgOkDpEnSDh1PV8bFMQyZWQmd+yLea3O7h7Rx5cURl3okrQFoFaBWg5tRz4saJ02RI2KFlbnuNAWQB7SQEQnj5DJWMkicHxyNDmPabBaRYIKkTtAiUEbQIlEESgRKDnhzYpHPZHLHI+M1Ixj2uc03VOAPDiDzVppmIzMKxXTVMxExsfUlQs5zmxCQQmSMTEWIt7d5HeG3dcCp1ZxnGxTXp1tXO3lxLKzYogDNJHEHGmmR7WWe4WeJSKZq3QVV00fFOOt9SVC75ZGQyNpfI9sbG1bnuDALNcSeCmImZxCtVUUxmqcQI5WvaHMcHtcAWuaQ4EHkQRzCiYxvTExMZhwnXMP86xv28X3rp6qv6Z7HH2i19cdsHHrGK8hrMmB7jyDZoyfYCom3XG+mexMX7cziKo7YdhKo6laBWgVoBAkAgEFvShY6QOlAdIk6QOkHwzsyLHjdLO9sUUYtz3mgP99yDEZHlb05r9rWZMrfptjjaPSA94d7lOFdeGe8ovSDFzxpkmJIHhs8gewgte0kxVuaeI5HjyNKYVqnL1PVdTgxInTZMjYYm83O7T2AAcSfAcVVeZYt/lb04P2iPKc2/jiOID00X37lOFdeGt0XW8bNj63EkErAacOLXNd3OaeIKjC2clret42FH1uVIImXTRxLnH6LWji4qcEzhkG+VrTy/aYsoNv45ZER6dofanCutD7+UfOiyNEkmgcJIpXYxY4WLHXt7DxHFI3lW516JrEGFo2FPkv2RtxoQAOLnO28Gtb2lOKc4hdaNq8WXjR5UW5sUgcR1gDCNpIO7jXMHjdKDLMar5TtPgeWR9blUaL4QzZ6nOI3ekcFOEayz6O9MsLPOyB5ZNV9TKAx5HbtokO9RKYImJXssrWNLnkNa0Euc4hoAHMknkFCWSk8o2ndcyGMyzF8jWCSOMbNznBo4uIJFnmAVOEZay1CWG6En/ABDUvtyfz3LbpHy6PPB5ehfPudf5ltyVieow+Wf8fh+wP5D1tp/w8+eLzK/8bHV+JHlQP4HH+3L/AABND+KUek/gp/fubMHksb02f6d/9gl+1D/NatGjfMhj0/5M/t3w6ui5/EcX/JaqXvmT1umi/Ip6mN6EaHj5UcpyGucY3MDae5nAtJPJbNJu1UTGq83QdHt3aZmuNzQZHQnDc0tYJI3n4rusc+j4h3MLPGlVxO1sq9H2ZjEZj9/F8OgOfI+OaCQl/wAGcwMcTfmu3DbfcCw16VbSqIiYqjiroFyqYmirh5/DVLI9AIEgEAgEAguqVVzpA6QFIGgVoPLvKCJNQ1fC0reWQbWvfXeQ8ud6QxlDxcVaNylW2cN9haDhwxCGLGhbEBRaY2uvxcTxcfEqq2Hk/lF6Mw4ObiyYzergyn/JDkyRj2Xt7mkOHDso9lBWhSqMStekcB1bX24ErnDEwmguaDVjq2veR4uL2tvsATgmdsvQmaLhti6luNAIarq+qYRXjY4qFnnTsMaNruM3FJbiagGtdFZNB7yzbx57XbXA86JCnerukhhjWNeyW5VuxdP3NEVkAhjgzbw7HPtx7wKTgjfL0WbSMV0fUux4HQ1XVmJm2vAVwULMz5S8eOLRpYoWNjijdjBjGANAHXt4AKYRVuY7oj0fyNWMEma5w07CY2KJgtu/aOLGemvOf6h9UrEZaHyrZxgxMbBxwI25Ti0tYNo6qMNHViuQJez1ApCal/o+gYWm4/FsTerZeRkyhpJPziXHkL5AInGHneRF/a2otfo8AxGQFpflAGMWHWJXMHAHhwbVnt8JV3tB5UsuWR+Fp0TtozHjrD3+e1jAfCySR4BQmWp0bo7iYbGsgiZubVyua10jnfSLjxv0cB2InC1tEvMtLycyPNzjgxMmeZZesDxdN651Eec3tXpVxRNFOvOP+nh2qrtN2v1UZnM57Z6YXP8AamufmkPsH/NXH1ej/V57Gn1umfRHn/UrNPmyH6vC7MY2KejbG8Bt6l9fOP710qimLM6k7P7uNuq5VpVM3IxP9p63d5Tj+Bx/tyfwhc9D+KXX0n8FP79zZArI9NQdOT+IS/ai/mNXfRvmQx6f8if274dXRg/iOL/ktVL3zJdNF+RT1MP0SfniOT4A1jm2zrN+zntNVuI7FuvxbzGu8rQ5v6s+qx05W2fJrZjdua1raO4w9SX121RJ9nFcaY0fLTcnTNXd2Yd3QF0HwdwisTBw+EbquyPNI+rQNetU0rW1tu7g6+j5o1JinfxaZZW8IBAIBAIBBeUqrmgECtArQK0HmvlJxZ8TNxdZx29Y2ANZOONCi4Au7g5r3NvsNd6tCk81/heUPS5IxI7IEJrzopWPDwe6gDu/4bUYTrQxuVmP6Qapjtx2ObgYLg5z3CvN3BznO7i7Y1oHPt76ncrvl19M2zaXq0erxMMmPOGtnA+lsDHNJ7LaGkHvaUJ2TlpovKBpTo+s+EhnCzG6OQSA92wA2fRYUYW1oZHS5pNb1iPMaxzMHALdpcPoEua09m9ziCQOQHouVd8nrU8mi6w/MLHSYWfu37e91F7QeW8OG4A8wfTQ3S1LvKBpYj6z4TfD5MRy777ttf8ATxTCcwrun+ox5WiPnhJdFM7HLCQWmuvaOIPiCkE7mR0LNy9FGPkuBm03PZG97W8g5zeNfRkHscB7JV3NV0+wBqWBDl4J650FyRbAbdG4APAHPcC0Gufmkc1CZYvK6QP1eWOPPyWYOHEGl4aHHc4Di4Cjbybq+DfHtlG96J0R1jTX7sPTbDYG7uMbmhwsAv3O4uN1ZPeoWhQ9PD/i+kfbi/8AkBSid70ElQsVohiOhh/H9R+3J/PctukfLp88HmaF8+51/mW0JWJ6bF5Z/wAdi+wP5L1tp/w8+eLzK/8AGx1fiXV5Q8N0mK17RfUPt32HAtJ9R2qmiVYrxzX9I25qt5jgtNE1qHJiY4PaJNo6yMuAc11ceHdfIrlctVUVYlosX6LlOYnbxhR9OdWjdEMWFwllkezcGHdQBsDh2l1cF30a3MTrTuZdPvUzT6unbMy0mlYphx4YjzjiY132g3j77WaurWrmW21RqW4p5QyXk6yY2RT9ZIyMl0db3tbfmnla1aXTM1RiHn+jaqYoqzPLuaufV8aNpc+eINHdI1x9QBslZYt1TsiHoVXrdMZmqGZ6CtL58zIa0thkcQ0eLnl9eoEe1atK2U008WDQIma668bJ8ZlslieoEAgEAgEAgvLVVxaBWgVogiUCtSIPAcCHAOa4EEEWCD2EdqDNz9A9Ke7ecRjT3MfJG39RrgEyjELvBwocdgix42QxjkyNoaL7zXM+KCc8bJGuZI1sjHinMeA5pHcQeBQZ1/QTSi7f8EaDfIPlDf1Q6kyjEL7Fx44WNjhYyKNvxWMaGNHoARKOZjRzMdHMxksbvjMe0OafUVIoG9BdLDt3wVpPcXylv6pdSIxC2zdMx5oDjSxNOMQ0dUBsaA0gt27aqiByQKTTYHY/wV0TDjBjWCIi27RyHqoceaCWn4UWNEyGBgjijFNaCTzNnieJNk8UFZqfRTT8l5kmxmGQm3PYXREnvcWEX60MQ69L0nGxGluLCyEH4xaOJ+048T6yhgs3SceaWGeaMPmxjcLyXeabvkDR4i+KDttArQV2Bo8OPLNNEHB+QSX24kcXFxodnErpVcqqiIng427FFuqaqd8u+1zdle/SIXZLcsh3XtFA7jt+KW/F9BK6RcqijU4OM2KJues4u5wBBBAIIogiwR3EKjrMZZzL6FYchtvWQ382Nza9QcDXqWinSrkMVfo+zVzjq/u69K6M4uM4PY0vkHxXyHcR4gUAD40qV3669ky6WdEt2pzEbelcLk1M5/cnC7pf2n/RaParjF/4+zyntNnQvCBvbI7wMhr3J7VcI0CzyntX2NjsiY1kTQxjR5rWigFwmqZnMtdNMUximNj6KqwQCAQCAQCC6tVXK0QVqQrQIlArQRJRBWgRKCNoESpCJQRJQK0CJQK0EbQIlEFaBWgRKAtAkAgSAQCAQCAQCAQCAQCAQCAQCC4VVgVIigRQIohEoEUCKCJUgQRKCJQJAigSBIEUQRQJAigRQJAIBAIBAIBAIBAIBAIBAIBAIBAIP//Z;" vertex="1" parent="1">
          <mxGeometry x="334.99" y="620" width="215.01" height="112" as="geometry" />
        </mxCell>
      </root>
    </mxGraphModel>
  </diagram>
</mxfile>
